<mxfile host="app.diagrams.net" agent="Mozilla/5.0 (Windows NT 10.0; Win64; x64) AppleWebKit/537.36 (KHTML, like Gecko) Chrome/128.0.0.0 Safari/537.36 OPR/114.0.0.0" version="26.0.5">
  <diagram name="Seite-1" id="FUBjYRKqwF_eicrbkuTp">
    <mxGraphModel dx="974" dy="612" grid="1" gridSize="10" guides="1" tooltips="1" connect="1" arrows="1" fold="1" page="1" pageScale="1" pageWidth="827" pageHeight="1169" math="0" shadow="0">
      <root>
        <mxCell id="0" />
        <mxCell id="1" parent="0" />
        <mxCell id="tU-Oc_dsRJSo4Q8ggnS2-4" value="Ausgabe: &quot;Alle Zahlen verschieden&quot;" style="rounded=1;whiteSpace=wrap;html=1;" vertex="1" parent="1">
          <mxGeometry x="590" y="300" width="160" height="80" as="geometry" />
        </mxCell>
        <mxCell id="tU-Oc_dsRJSo4Q8ggnS2-5" value="Sind alle Zahlen gleich?" style="rhombus;whiteSpace=wrap;html=1;" vertex="1" parent="1">
          <mxGeometry x="70" y="350" width="140" height="70" as="geometry" />
        </mxCell>
        <mxCell id="tU-Oc_dsRJSo4Q8ggnS2-6" value="Ausgabe: &quot;Alle Zahlen gleich&quot;" style="rounded=1;whiteSpace=wrap;html=1;" vertex="1" parent="1">
          <mxGeometry x="350" y="345" width="160" height="80" as="geometry" />
        </mxCell>
        <mxCell id="tU-Oc_dsRJSo4Q8ggnS2-7" value="Zwei Zahlen sind gleich, nÃ¤mlich X" style="rounded=1;whiteSpace=wrap;html=1;" vertex="1" parent="1">
          <mxGeometry x="40" y="490" width="200" height="80" as="geometry" />
        </mxCell>
        <mxCell id="tU-Oc_dsRJSo4Q8ggnS2-8" value="Ende" style="ellipse;whiteSpace=wrap;html=1;aspect=fixed;" vertex="1" parent="1">
          <mxGeometry x="100" y="650" width="80" height="80" as="geometry" />
        </mxCell>
        <mxCell id="tU-Oc_dsRJSo4Q8ggnS2-10" edge="1" parent="1" target="tU-Oc_dsRJSo4Q8ggnS2-4">
          <mxGeometry relative="1" as="geometry">
            <mxPoint x="190.13513513513522" y="244.9324324324324" as="sourcePoint" />
          </mxGeometry>
        </mxCell>
        <mxCell id="tU-Oc_dsRJSo4Q8ggnS2-11" edge="1" parent="1" target="tU-Oc_dsRJSo4Q8ggnS2-5">
          <mxGeometry relative="1" as="geometry">
            <mxPoint x="140" y="270" as="sourcePoint" />
          </mxGeometry>
        </mxCell>
        <mxCell id="tU-Oc_dsRJSo4Q8ggnS2-12" edge="1" parent="1" source="tU-Oc_dsRJSo4Q8ggnS2-5" target="tU-Oc_dsRJSo4Q8ggnS2-6">
          <mxGeometry relative="1" as="geometry" />
        </mxCell>
        <mxCell id="tU-Oc_dsRJSo4Q8ggnS2-13" edge="1" parent="1" source="tU-Oc_dsRJSo4Q8ggnS2-5" target="tU-Oc_dsRJSo4Q8ggnS2-7">
          <mxGeometry relative="1" as="geometry" />
        </mxCell>
        <mxCell id="tU-Oc_dsRJSo4Q8ggnS2-14" edge="1" parent="1" source="tU-Oc_dsRJSo4Q8ggnS2-7" target="tU-Oc_dsRJSo4Q8ggnS2-8">
          <mxGeometry relative="1" as="geometry" />
        </mxCell>
        <mxCell id="tU-Oc_dsRJSo4Q8ggnS2-15" edge="1" parent="1" source="tU-Oc_dsRJSo4Q8ggnS2-6" target="tU-Oc_dsRJSo4Q8ggnS2-8">
          <mxGeometry relative="1" as="geometry" />
        </mxCell>
        <mxCell id="tU-Oc_dsRJSo4Q8ggnS2-16" edge="1" parent="1" source="tU-Oc_dsRJSo4Q8ggnS2-4" target="tU-Oc_dsRJSo4Q8ggnS2-8">
          <mxGeometry relative="1" as="geometry" />
        </mxCell>
        <mxCell id="tU-Oc_dsRJSo4Q8ggnS2-17" value="" style="ellipse;html=1;shape=startState;fillColor=#000000;strokeColor=#ff0000;" vertex="1" parent="1">
          <mxGeometry x="125" y="70" width="30" height="30" as="geometry" />
        </mxCell>
        <mxCell id="tU-Oc_dsRJSo4Q8ggnS2-18" value="" style="edgeStyle=orthogonalEdgeStyle;html=1;verticalAlign=bottom;endArrow=open;endSize=8;strokeColor=#ff0000;rounded=0;entryX=0.5;entryY=0;entryDx=0;entryDy=0;" edge="1" source="tU-Oc_dsRJSo4Q8ggnS2-17" parent="1">
          <mxGeometry relative="1" as="geometry">
            <mxPoint x="140" y="200" as="targetPoint" />
          </mxGeometry>
        </mxCell>
        <mxCell id="tU-Oc_dsRJSo4Q8ggnS2-21" value="" style="edgeStyle=orthogonalEdgeStyle;rounded=0;orthogonalLoop=1;jettySize=auto;html=1;" edge="1" parent="1" source="tU-Oc_dsRJSo4Q8ggnS2-19" target="tU-Oc_dsRJSo4Q8ggnS2-5">
          <mxGeometry relative="1" as="geometry" />
        </mxCell>
        <mxCell id="tU-Oc_dsRJSo4Q8ggnS2-19" value="Sind alle Zahlen gleich?" style="rhombus;" vertex="1" parent="1">
          <mxGeometry x="95" y="200" width="90" height="90" as="geometry" />
        </mxCell>
      </root>
    </mxGraphModel>
  </diagram>
</mxfile>
